<svg xmlns="http://www.w3.org/2000/svg" xmlns:xlink="http://www.w3.org/1999/xlink" viewBox="0 0 30 30"><defs><style>.cls-1{fill:none;}.cls-2{clip-path:url(#clip-path);}.cls-3{fill:#010101;}</style><clipPath id="clip-path"><rect class="cls-1" width="30" height="30"/></clipPath></defs><title>icon_boot</title><g id="Layer_2" data-name="Layer 2"><g id="Layer_1-2" data-name="Layer 1"><g class="cls-2"><rect class="cls-1" width="30" height="30"/><path d="M29.76,22.81a1.16,1.16,0,0,1-1.2.65q-13.74,0-27.48,0c-.58,0-.92-.22-1-.68a1.34,1.34,0,0,1,0-.35c0-.92,0-1.84,0-2.76,0-.24.06-.29.3-.29H29.76Z"/><path class="cls-3" d="M29.76,19H23.12a5.26,5.26,0,0,1,1-1.81,16.79,16.79,0,0,1,3.63-3.09c.56-.37,1.15-.71,1.72-1.06.08,0,.14-.14.25-.09Z"/><path class="cls-3" d="M27.44,12.22c-.56.37-1.12.73-1.66,1.12a15.75,15.75,0,0,0-3.16,2.94,6.36,6.36,0,0,0-1.3,2.53c-.05.25-.19.23-.37.23H.05a6.44,6.44,0,0,1,4.56-5.23c.25-.08.51-.14.75-.23s.26-.05.31.16c.21.81.45,1.6.67,2.4a1,1,0,0,0,.44.66.89.89,0,0,0,1.33-1c-.24-.85-.47-1.69-.72-2.54-.06-.18,0-.27.17-.31a5.65,5.65,0,0,0,.8-.24c.23-.09.3,0,.35.2.21.79.44,1.58.66,2.37a1,1,0,0,0,.91.79.89.89,0,0,0,.85-1.17c-.23-.85-.47-1.69-.72-2.53-.06-.21,0-.29.19-.33a7.93,7.93,0,0,0,.83-.25c.2-.08.24,0,.29.17.22.81.45,1.61.68,2.42a.92.92,0,0,0,1,.77A.89.89,0,0,0,14.16,14c-.24-.84-.48-1.69-.73-2.53,0-.19,0-.28.18-.31a2.76,2.76,0,0,0,1.45-.83C16.2,9.17,17.37,8.09,18.52,7a1.32,1.32,0,0,1,1.74-.25,1.3,1.3,0,0,1,.61,1.06,4.73,4.73,0,0,0,1.24,2.93,4.86,4.86,0,0,0,5,1.49l.22-.06Z"/><path class="cls-3" d="M27.44,12.22s2.19-.82,2.47-2.25-.15,3-.15,3l-6.64,6h-3.7l3.7-4.79Z"/></g></g></g></svg>