<svg xmlns="http://www.w3.org/2000/svg" viewBox="0 0 100 57.89"><defs><style>.cls-1{fill:#fff;}.cls-2{fill:#ff0;}</style></defs><title>mini_logo_w100px</title><g id="Layer_2" data-name="Layer 2"><g id="Layer_1-2" data-name="Layer 1"><path class="cls-1" d="M72.37,7.2V3.51A3.52,3.52,0,0,0,68.85,0H0V21.71L14.47,36.18H50.66V21.71H46.73l-1.58,1.94H26.63l-1.57-1.94H21.71l-7.24-7.24H57.89V36.18l-7.23,7.24H10.92L3.72,57.89H57.89L72.37,43.42V37.91l-2.52-2.23V9.43Z"/><path class="cls-1" d="M87.2,18.19a1.08,1.08,0,0,0-.49-1.07,2.92,2.92,0,0,0-1.61-.65c-.07,0-.12,0-.12.08,0,.33.07,2.16.15,4.14a15.35,15.35,0,0,1-1.84.32c-.33,0-.71,0-1.13,0,0-.47,0-.9,0-1.29a4.73,4.73,0,0,1,.19-1.25.44.44,0,0,0,0-.17c0-.91-1.83-2.05-2.46-2.06-.42,0-.58.11-.58.31,0,.47.87,1.38,1.07,2,0,.54,0,1.35,0,2.3-.23,0-.47-.08-.68-.08s-.21.06-.22.32a1.22,1.22,0,0,0,.91,1.36c0,2.11.07,4.38.06,5.47a13.51,13.51,0,0,1-.34,1.52.25.25,0,0,0,.21.26c.5,0,1.44-1.86,1.57-2.94a7.82,7.82,0,0,0,.26-2.11c0-.69,0-1.44,0-2.14.43,0,.89-.06,1.3,0s1,.1,1.69.18c.08,1.73.15,3.18.15,3.26,0,.28.6,1.55,1.4,1.56.39,0,.51-.33.52-.74a16,16,0,0,0-.3-1.89C87,24.23,87.19,18.78,87.2,18.19Z"/><path class="cls-1" d="M95.59,17.14a.22.22,0,0,0,0-.1c0-.07-.07-.12-.33-.13a3.78,3.78,0,0,0-.51,0c-.31-.39-.39-.49-.79-.5-.74,0-1.4.35-2.15.34a31.68,31.68,0,0,1-3.33-.25l-.21,0c-.14,0-.21.07-.21.33A1.25,1.25,0,0,0,88.57,18c0,1.38.28,7.85.28,8.06s.47,1.54,1.09,1.55H90a7.2,7.2,0,0,1,1.66-.15c1,0,1.91.2,3.39.22.35,0,.49-.15.5-.37a2.45,2.45,0,0,0-1.08-1.62,2.48,2.48,0,0,0-.27,0c-.74,0-3,.27-3.74.26-.29,0-.38-.38-.37-.93s.19-5.5.2-6.09a3.58,3.58,0,0,0,0-.61c.58,0,1.21-.09,1.78-.08.31,0,1.06.1,1.83.18a5.39,5.39,0,0,1,.06.66c0,.25-.22,1-.23,1.5,0,.19.13.26.36.27a3.17,3.17,0,0,0,1.63-.57.34.34,0,0,0,0-.14c0-.4-.36-.77-.35-1.17A9.32,9.32,0,0,1,95.59,17.14Z"/><path class="cls-2" d="M100,12.67a2.87,2.87,0,0,0-2.76-2.32l-19.25-.28a2.87,2.87,0,0,0-2.83,2.24,2.62,2.62,0,0,0-.06.57l-.29,19.25A2.86,2.86,0,0,0,77.57,35l19.25.28a2.86,2.86,0,0,0,2.9-2.81L100,13.24A2.69,2.69,0,0,0,100,12.67ZM98,32.47a1.17,1.17,0,0,1-1.17,1.14L77.6,33.33a1.17,1.17,0,0,1-1.14-1.18l.28-19.25a1.17,1.17,0,0,1,1.17-1.14L97.16,12a1.19,1.19,0,0,1,1.15,1.18Z"/></g></g></svg>