<svg xmlns="http://www.w3.org/2000/svg" viewBox="0 0 483.04 167.91"><defs><style>.cls-1{opacity:0.08;}.cls-2,.cls-4,.cls-7,.cls-9{fill:#fff;}.cls-3,.cls-7{opacity:0.1;}.cls-4,.cls-5,.cls-6,.cls-7{stroke:lime;stroke-miterlimit:10;}.cls-5,.cls-6{fill:none;}.cls-6{stroke-width:0.74px;}.cls-8{fill:#ff0;}.cls-9{font-size:34.3px;font-family:SquareFont;letter-spacing:0.03em;}</style></defs><title>Asset 11</title><g id="Layer_2" data-name="Layer 2"><g id="Layer_1-2" data-name="Layer 1"><g class="cls-1"><path class="cls-2" d="M0,19.45V137.53H39.33V45.75l91.78,91.78V72L65.56,6.42H13A13,13,0,0,0,0,19.45Z"/><path class="cls-2" d="M202.88,19.45V137.53h39.33V45.75L334,137.53V72L268.43,6.42H215.91A13,13,0,0,0,202.88,19.45Z"/><path class="cls-2" d="M351.93,46.07h118L483,33V6.73H363.61a11.68,11.68,0,0,0-11.68,11.68Z"/><polygon class="cls-2" points="351.93 59.18 483.04 59.18 483.04 85.4 391.26 85.4 404.37 98.51 483.04 98.51 483.04 137.84 391.26 137.84 351.93 98.51 351.93 59.18"/><polygon class="cls-2" points="184.94 137.37 149.05 137.37 149.05 6.59 184.94 45.92 184.94 137.37"/></g><g class="cls-3"><line class="cls-4" x1="26.95" y1="118.8" x2="445.51" y2="118.8"/><line class="cls-4" x1="322.15" y1="124.38" x2="434.36" y2="124.38"/><line class="cls-4" x1="158.35" y1="23.8" x2="441.31" y2="23.8"/><path class="cls-5" d="M404.78,11.25V167.91"/><path class="cls-6" d="M149.78,167.91V11.25L281.59,143.06"/></g><line class="cls-7" x1="431.78" y1="144.2" x2="346.01" y2="144.2"/><line class="cls-7" x1="54.78" y1="11.25" x2="54.78" y2="163.19"/><line class="cls-7" x1="149.78" y1="118.58" x2="32.36" y2="1.15"/><line class="cls-7" x1="296.78" y1="118.58" x2="178.56" y2="0.35"/><line class="cls-7" x1="338.28" y1="118.8" x2="220.4" y2="0.92"/><line class="cls-7" x1="102.28" y1="23.58" x2="224.01" y2="145.3"/><line class="cls-7" x1="404.78" y1="61.8" x2="3.53" y2="61.8"/><polyline class="cls-8" points="404.96 124.6 404.96 132.66 394.03 143.59 393.6 144.02 385.66 143.91 385.66 143.9 404.98 124.58"/><polygon class="cls-8" points="396.9 124.58 385.66 124.58 385.66 135.81 396.9 124.58"/><path class="cls-2" d="M102.28,23.58H64.22A9.44,9.44,0,0,0,54.78,33V52.08l3.32,3.31V94.33l-3.32,3.32v20.93h28.5V52.08l66.5,66.5V71.08Z"/><path class="cls-2" d="M291.3,65.59h-4.69L259.07,38.05V33.36l-9.79-9.78H211.22A9.44,9.44,0,0,0,201.78,33v85.56h28.5V52.08l66.5,66.5V71.08Z"/><path class="cls-2" d="M318.24,23.8a8.46,8.46,0,0,0-8.46,8.46v20h28.5L341.6,49h38.94l3.32,3.31h11.42l9.5-9.5v-19Z"/><polygon class="cls-2" points="309.79 61.8 404.79 61.8 404.79 80.8 338.29 80.8 347.79 90.3 404.79 90.3 404.79 118.8 338.29 118.8 309.79 90.3 309.79 61.8"/><polygon class="cls-2" points="188.78 66.8 188.78 52.2 162.78 23.7 162.78 118.45 188.78 118.45 188.78 112.37 185.47 109.05 185.47 70.11 188.78 66.8"/><text class="cls-9" transform="translate(413.57 21.75) rotate(90) scale(1.2 0.76)">HOUSE</text></g></g></svg>